<?xml version="1.0" encoding="UTF-8" standalone="no"?>
<svg
   xmlns:dc="http://purl.org/dc/elements/1.1/"
   xmlns:cc="http://creativecommons.org/ns#"
   xmlns:rdf="http://www.w3.org/1999/02/22-rdf-syntax-ns#"
   xmlns:svg="http://www.w3.org/2000/svg"
   xmlns="http://www.w3.org/2000/svg"
   xmlns:sodipodi="http://sodipodi.sourceforge.net/DTD/sodipodi-0.dtd"
   xmlns:inkscape="http://www.inkscape.org/namespaces/inkscape"
   width="280"
   height="80"
   viewBox="0 0 280 80"
   version="1.1"
   id="svg73"
   sodipodi:docname="about.svg"
   inkscape:version="0.92.3 (2405546, 2018-03-11)">
  <metadata
     id="metadata77">
    <rdf:RDF>
      <cc:Work
         rdf:about="">
        <dc:format>image/svg+xml</dc:format>
        <dc:type
           rdf:resource="http://purl.org/dc/dcmitype/StillImage" />
        <dc:title>Icon-256@2x</dc:title>
      </cc:Work>
    </rdf:RDF>
  </metadata>
  <!-- Generator: Sketch 48.2 (47327) - http://www.bohemiancoding.com/sketch -->
  <title
     id="title2">Icon-256@2x</title>
  <desc
     id="desc4">Created with Sketch.</desc>
  <rect
     style="fill:#eff0f1;fill-opacity:1;stroke-width:1.01010633"
     id="rect884"
     width="280"
     height="80"
     x="0"
     y="7.1054274e-15"
     ry="10" />
  <defs
     id="defs51">
    <linearGradient
       x1="161.28316"
       y1="7.5663333"
       x2="145.29044"
       y2="30.648863"
       id="linearGradient-1"
       gradientTransform="scale(1.0852396,0.9214555)"
       gradientUnits="userSpaceOnUse">
      <stop
         stop-color="#D446FF"
         offset="0%"
         id="stop6" />
      <stop
         stop-color="#A0D8FF"
         offset="100%"
         id="stop8" />
    </linearGradient>
    <linearGradient
       x1="157.61548"
       y1="21.212255"
       x2="163.49132"
       y2="42.908016"
       id="linearGradient-2"
       gradientTransform="scale(1.0714703,0.93329694)"
       gradientUnits="userSpaceOnUse">
      <stop
         stop-color="#3C3C3C"
         offset="0%"
         id="stop11" />
      <stop
         stop-color="#191919"
         offset="100%"
         id="stop13" />
    </linearGradient>
    <linearGradient
       x1="79.548843"
       y1="-14.46623"
       x2="-11.576564"
       y2="53.028095"
       id="linearGradient-3"
       gradientTransform="scale(1.0090862,0.99099563)"
       gradientUnits="userSpaceOnUse">
      <stop
         stop-color="#D446FF"
         offset="0%"
         id="stop16" />
      <stop
         stop-color="#A0D8FF"
         offset="100%"
         id="stop18" />
    </linearGradient>
    <linearGradient
       x1="20.77421"
       y1="34.174587"
       x2="40.200981"
       y2="23.636288"
       id="linearGradient-4"
       gradientTransform="scale(1.2049438,0.82991422)"
       gradientUnits="userSpaceOnUse">
      <stop
         stop-color="#FFFFFF"
         offset="0%"
         id="stop21" />
      <stop
         stop-color="#DADADA"
         offset="100%"
         id="stop23" />
    </linearGradient>
    <linearGradient
       x1="25.714579"
       y1="50.333694"
       x2="11.381782"
       y2="32.590153"
       id="linearGradient-5"
       gradientTransform="scale(1.114092,0.89759195)"
       gradientUnits="userSpaceOnUse">
      <stop
         stop-color="#FFFFFF"
         offset="0%"
         id="stop26" />
      <stop
         stop-color="#DADADA"
         offset="100%"
         id="stop28" />
    </linearGradient>
    <linearGradient
       x1="36.866966"
       y1="15.710848"
       x2="16.4951"
       y2="24.66194"
       id="linearGradient-6"
       gradientTransform="scale(1.3550117,0.73800101)"
       gradientUnits="userSpaceOnUse">
      <stop
         stop-color="#D0D0D0"
         offset="0%"
         id="stop31" />
      <stop
         stop-color="#FFFFFF"
         offset="100%"
         id="stop33" />
    </linearGradient>
    <linearGradient
       x1="16.490288"
       y1="39.958931"
       x2="-6.1390529"
       y2="67.829094"
       id="linearGradient-7"
       gradientTransform="scale(1.163757,0.85928589)"
       gradientUnits="userSpaceOnUse">
      <stop
         stop-color="#FFDC68"
         offset="0%"
         id="stop36" />
      <stop
         stop-color="#CE4300"
         offset="100%"
         id="stop38" />
    </linearGradient>
    <linearGradient
       x1="10.298144"
       y1="22.935205"
       x2="5.0843673"
       y2="24.525209"
       id="linearGradient-8"
       gradientTransform="scale(2.1466972,0.46583188)"
       gradientUnits="userSpaceOnUse">
      <stop
         stop-color="#FFDC68"
         offset="0%"
         id="stop41" />
      <stop
         stop-color="#CE4300"
         offset="100%"
         id="stop43" />
    </linearGradient>
    <linearGradient
       x1="13.558518"
       y1="38.66333"
       x2="-5.5350304"
       y2="67.982826"
       id="linearGradient-9"
       gradientTransform="scale(1.4995047,0.66688689)"
       gradientUnits="userSpaceOnUse">
      <stop
         stop-color="#FFDC68"
         offset="0%"
         id="stop46" />
      <stop
         stop-color="#CE4300"
         offset="100%"
         id="stop48" />
    </linearGradient>
  </defs>
  <g
     id="Page-1"
     style="fill:none;fill-rule:evenodd;stroke:none;stroke-width:1"
     transform="translate(12.234672,-11.350754)">
    <g
       id="Icon-256">
      <g
         id="Group-4"
         transform="translate(0,25)">
        <polygon
           id="path4996-2"
           points="63.468262,3.9135926 87.230515,3.9135926 87.230515,8.2445017 68.376622,8.2445017 68.376622,21.641444 85.498155,21.641444 85.498155,25.972361 68.376622,25.972361 68.376622,44.941732 63.468262,44.941732 "
           style="fill:#252525;fill-rule:nonzero" />
        <path
           d="m 99.658826,3.3180459 h 5.572434 l 14.58073,41.0281391 h -4.96611 L 110.68821,32.421749 H 93.768784 L 89.611111,44.346185 H 85.078099 Z M 102.2285,8.1109121 95.241299,28.119716 h 13.945531 z"
           id="path4998-6"
           inkscape:connector-curvature="0"
           style="fill:#252525;fill-rule:nonzero" />
        <polygon
           id="path5000-0"
           points="128.01637,3.9135926 128.01637,40.639707 146.43716,40.639707 146.43716,44.941732 123.10801,44.941732 123.10801,3.9135926 "
           style="fill:#252525;fill-rule:nonzero" />
        <polygon
           id="path5002-7"
           points="150.75839,44.941732 150.75839,3.9135926 155.66676,3.9135926 155.66676,44.941732 "
           style="fill:#252525;fill-rule:nonzero" />
        <path
           d="m 199.17096,3.4882021 c 2.71403,0 5.24521,0.4812102 7.59353,1.4436307 2.36756,0.9431758 4.4079,2.2809466 6.12102,4.0133126 1.73236,1.7323546 3.08938,3.8978076 4.07104,6.4963596 0.98167,2.579295 1.47251,5.418445 1.47251,8.517449 0,4.196171 -0.83731,7.930379 -2.51192,11.202625 -1.65537,3.252995 -3.96519,5.774545 -6.92946,7.564651 -2.94501,1.770861 -6.28462,2.656291 -10.01883,2.656291 -2.46381,0 -4.82175,-0.43309 -7.07382,-1.29927 -2.25207,-0.885436 -4.28279,-2.165462 -6.09215,-3.840076 -1.80935,-1.674615 -3.25298,-3.859319 -4.3309,-6.554111 -1.07792,-2.714037 -1.61688,-5.76492 -1.61688,-9.152651 0,-3.175999 0.49084,-6.082522 1.47251,-8.719569 0.98167,-2.637041 2.32907,-4.850614 4.04219,-6.6407201 1.71311,-1.8093616 3.75345,-3.2048778 6.12102,-4.1865486 2.36755,-1.0009155 4.9276,-1.5013732 7.68014,-1.5013732 z m -0.25985,4.3020336 c -1.75161,0 -3.43586,0.3272217 -5.05274,0.9816651 -1.61686,0.6544548 -3.10862,1.6168812 -4.47526,2.8872782 -1.3474,1.251147 -2.43494,2.945013 -3.26263,5.081596 -0.80843,2.117333 -1.21264,4.51377 -1.21264,7.189312 0,2.560051 0.37534,4.927613 1.12603,7.102686 0.75069,2.155833 1.77086,3.965192 3.06051,5.428076 1.28965,1.462889 2.81028,2.598549 4.56189,3.406978 1.77086,0.80844 3.66684,1.212661 5.68793,1.212661 1.36664,0 2.70441,-0.202112 4.0133,-0.606335 1.32815,-0.404217 2.59855,-1.039416 3.81121,-1.905596 1.21265,-0.885436 2.27131,-1.963353 3.176,-3.233751 0.92392,-1.270397 1.65537,-2.839147 2.19433,-4.706248 0.5582,-1.867107 0.8373,-3.917072 0.8373,-6.149896 0,-2.271319 -0.28873,-4.350154 -0.86618,-6.236505 -0.57745,-1.886352 -1.34739,-3.464726 -2.30982,-4.735124 -0.94318,-1.270403 -2.04996,-2.338695 -3.32036,-3.204875 -1.25116,-0.8854361 -2.55043,-1.5206377 -3.89783,-1.9056047 -1.32814,-0.4042118 -2.68516,-0.6063176 -4.07104,-0.6063176 z"
           id="path5004-3"
           inkscape:connector-curvature="0"
           style="fill:#252525;fill-rule:nonzero" />
        <polygon
           id="path5006-7"
           points="227.21744,10.554321 227.21744,44.941732 222.30907,44.941732 222.30907,3.9135926 228.51671,3.9135926 250.86419,38.243269 250.86419,3.9135926 255.77256,3.9135926 255.77256,44.941732 249.56493,44.941732 "
           style="fill:#252525;fill-rule:nonzero" />
        <polygon
           id="path5002-8-1"
           points="156.88402,24.489067 174.26541,4.5091392 180.41528,4.5091392 163.06278,24.084853 "
           style="fill:url(#linearGradient-1);fill-rule:nonzero" />
        <polygon
           id="path5002-9-8"
           points="156.37355,23.88577 162.55231,23.481555 181.00198,44.933981 174.67885,44.933981 "
           style="fill:url(#linearGradient-2);fill-rule:nonzero" />
        <g
           id="Group-2">
          <ellipse
             id="ellipse4650-0-7-2-3-4-4"
             cx="26.813417"
             cy="26.350754"
             rx="26.805321"
             ry="26.320282"
             style="fill:url(#linearGradient-3);fill-rule:nonzero;stroke:#a3a3a3;stroke-width:0.5" />
          <path
             d="m 9.3721609,52.081911 c 0,0 8.3767721,-29.312221 40.9845281,-25.585009 0,0 -20.723434,-12.302021 -40.841614,4.282899 -5.9415311,13.762574 -0.1429141,21.30211 -0.1429141,21.30211 z"
             id="path4652-2-7-9-7-2-7"
             inkscape:connector-curvature="0"
             style="fill:url(#linearGradient-4)" />
          <path
             d="m 11.866021,48.37431 c 0,0 8.740533,-21.073029 32.071755,-21.443365 -17.735023,4.320597 0.0291,19.637837 0.0291,19.637837 0,0 -14.028724,12.711119 -32.100852,1.805528 z"
             id="path4654-1-7-7-4-4-6"
             inkscape:connector-curvature="0"
             style="fill:url(#linearGradient-5)" />
          <path
             d="m 6.9995964,32.220216 c 0,0 17.4578476,-19.203624 43.5282356,-5.935669 -0.465556,-3.607941 -3.549773,-7.681438 -9.078088,-8.845298 -1.222045,-0.581926 -10.183747,-14.4318233 -29.445565,-6.459393 5.925682,0.461387 8.468266,1.291426 8.612541,1.920349 C 10.369106,11.139037 7.3314861,25.722572 6.9995964,32.220216 Z"
             id="path4656-5-6-43-8-0-8"
             inkscape:connector-curvature="0"
             style="fill:url(#linearGradient-6)" />
          <path
             d="m 32.03706,15.929921 c 0,0 4.466532,-1.599638 5.04822,3.157742 -4.404204,0.415513 -5.04822,-3.157742 -5.04822,-3.157742 z"
             id="path4658-6-9-5-0-2-9"
             inkscape:connector-curvature="0"
             style="fill:#202020" />
          <path
             d="m 9.2551104,52.177267 c 0,0 7.6361086,-24.909311 33.1663186,-25.873042 0,0 -20.716679,-3.779841 -35.348172,19.397705 -0.081122,3.279071 2.1818534,6.475337 2.1818534,6.475337 z"
             id="path4660-5-1-6-0-7-6"
             inkscape:connector-curvature="0"
             style="fill:url(#linearGradient-7)" />
          <path
             d="m 12.025602,10.982272 c 0,0 6.367738,0.370345 8.641196,1.933987 0.949233,-0.195279 1.755212,-0.8452 1.892222,-1.730369 -0.814547,-0.337105 -8.270247,-0.94429 -10.533418,-0.203618 z"
             id="path4662-0-1-1-1-2-3"
             inkscape:connector-curvature="0"
             style="fill:url(#linearGradient-8)" />
          <path
             d="m 7.0570156,32.253337 c 0,0 7.9722094,-9.57537 24.0666204,-10.719313 0,0 -21.9094907,0.990181 -23.7487686,7.176848 -0.5113449,1.487667 -0.3178518,3.542465 -0.3178518,3.542465 z"
             id="path4442-5-0-9-4-6-0-96"
             inkscape:connector-curvature="0"
             style="fill:url(#linearGradient-9)" />
        </g>
      </g>
    </g>
  </g>
</svg>
