<?xml version="1.0" encoding="UTF-8"?>
<svg width="256px" height="200px" viewBox="0 0 256 200" version="1.1" xmlns="http://www.w3.org/2000/svg" xmlns:xlink="http://www.w3.org/1999/xlink">
    <!-- Generator: Sketch 48.2 (47327) - http://www.bohemiancoding.com/sketch -->
    <title>Icon-256</title>
    <desc>Created with Sketch.</desc>
    <defs>
        <linearGradient x1="77.1180071%" y1="12.3268731%" x2="3.36110907%" y2="118.781335%" id="linearGradient-1">
            <stop stop-color="#D446FF" offset="0%"></stop>
            <stop stop-color="#A0D8FF" offset="100%"></stop>
        </linearGradient>
        <linearGradient x1="50.7818321%" y1="-17.173918%" x2="76.3448843%" y2="77.2144178%" id="linearGradient-2">
            <stop stop-color="#3C3C3C" offset="0%"></stop>
            <stop stop-color="#191919" offset="100%"></stop>
        </linearGradient>
        <linearGradient x1="148.794275%" y1="-26.5643443%" x2="-21.1415871%" y2="99.3029307%" id="linearGradient-3">
            <stop stop-color="#D446FF" offset="0%"></stop>
            <stop stop-color="#A0D8FF" offset="100%"></stop>
        </linearGradient>
        <linearGradient x1="41.8083357%" y1="20.866645%" x2="95.5956597%" y2="-8.31097281%" id="linearGradient-4">
            <stop stop-color="#FFFFFF" offset="0%"></stop>
            <stop stop-color="#DADADA" offset="100%"></stop>
        </linearGradient>
        <linearGradient x1="52.2801818%" y1="70.5577815%" x2="2.53678786%" y2="8.97706744%" id="linearGradient-5">
            <stop stop-color="#FFFFFF" offset="0%"></stop>
            <stop stop-color="#DADADA" offset="100%"></stop>
        </linearGradient>
        <linearGradient x1="98.684398%" y1="12.9995489%" x2="35.2678133%" y2="40.863838%" id="linearGradient-6">
            <stop stop-color="#D0D0D0" offset="0%"></stop>
            <stop stop-color="#FFFFFF" offset="100%"></stop>
        </linearGradient>
        <linearGradient x1="34.2841787%" y1="31.6476155%" x2="-40.2132134%" y2="123.398162%" id="linearGradient-7">
            <stop stop-color="#FFDC68" offset="0%"></stop>
            <stop stop-color="#CE4300" offset="100%"></stop>
        </linearGradient>
        <linearGradient x1="95.7086811%" y1="2.33776624%" x2="-10.5474304%" y2="34.7418529%" id="linearGradient-8">
            <stop stop-color="#FFDC68" offset="0%"></stop>
            <stop stop-color="#CE4300" offset="100%"></stop>
        </linearGradient>
        <linearGradient x1="55.2222258%" y1="39.6484627%" x2="-63.5655829%" y2="222.055577%" id="linearGradient-9">
            <stop stop-color="#FFDC68" offset="0%"></stop>
            <stop stop-color="#CE4300" offset="100%"></stop>
        </linearGradient>
    </defs>
    <g id="Page-1" stroke="none" stroke-width="1" fill="none" fill-rule="evenodd">
        <g id="Icon-256">
            <g id="Group-3" transform="translate(10.977346, 25)">
                <g id="Group" transform="translate(0.000000, 92.686084)" fill-rule="nonzero">
                    <polygon id="path4996-2" fill="#252525" points="5.97461748 5.99664466 5.97461748 22.3038447 26.8155133 22.3038447 26.8155133 27.5755806 5.97461748 27.5755806 5.97461748 50.6657243 0 50.6657243 0 0.724919094 28.9241994 0.724919094 28.9241994 5.99664466 5.97461748 5.99664466"></polygon>
                    <path d="M44.0523495,0 L50.8353036,0 L68.583446,49.9408052 L62.538532,49.9408052 L57.4776751,35.4259883 L36.8827961,35.4259883 L31.8219392,49.9408052 L26.3042071,49.9408052 L44.0523495,0 Z M47.1802408,5.83403495 L38.6751896,30.189411 L55.6501437,30.189411 L47.1802408,5.83403495 Z" id="path4998-6" fill="#252525"></path>
                    <polygon id="path5000-0" fill="#252525" points="72.5954693 0.724919094 78.5700867 0.724919094 78.5700867 45.4291573 100.992487 45.4291573 100.992487 50.6657243 72.5954693 50.6657243"></polygon>
                    <polygon id="path5002-7" fill="#252525" points="106.252427 0.724919094 112.227055 0.724919094 112.227055 50.6657243 106.252427 50.6657243"></polygon>
                    <path d="M165.181805,0.207119741 C168.485413,0.207119741 171.566443,0.792864725 174.424896,1.96435469 C177.306774,3.11241942 179.790343,4.74079827 181.875604,6.84949126 C183.984297,8.95817044 185.636101,11.5940315 186.831016,14.7570744 C188.025938,17.8966783 188.623399,21.3525851 188.623399,25.1247948 C188.623399,30.2325126 187.604201,34.7779141 185.565805,38.7609994 C183.55084,42.7206524 180.739252,45.7899668 177.131039,47.9689424 C173.546273,50.1244928 169.481189,51.202268 164.935788,51.202268 C161.936756,51.202268 159.066594,50.6750964 156.325302,49.6207534 C153.584003,48.5429713 151.112147,46.984882 148.909732,44.9464854 C146.707331,42.9080889 144.950096,40.2487957 143.638027,36.9686058 C142.325944,33.6649907 141.669903,29.9513545 141.669903,25.8276971 C141.669903,21.9617657 142.267364,18.4238498 143.462286,15.2139495 C144.657215,12.0040561 146.29731,9.30962157 148.382571,7.13064595 C150.467832,4.92823128 152.951401,3.22956289 155.833279,2.03464078 C158.71515,0.81629342 161.831325,0.207119741 165.181805,0.207119741 Z M164.865502,5.44369709 C162.733383,5.44369709 160.683264,5.84200216 158.715143,6.6386123 C156.747043,7.43523625 154.931231,8.60673312 153.267707,10.1531029 C151.627609,11.6760406 150.303817,13.7378693 149.296331,16.338589 C148.312285,18.9158766 147.820261,21.8328992 147.820261,25.089657 C147.820261,28.2058356 148.277143,31.08771 149.190907,33.7352803 C150.104671,36.3594321 151.346454,38.5618434 152.916256,40.3425139 C154.486058,42.1231914 156.337018,43.5055534 158.469137,44.4896 C160.624694,45.4736604 162.932539,45.9656906 165.392673,45.9656906 C167.056197,45.9656906 168.684572,45.7196738 170.277799,45.2276401 C171.894466,44.7356134 173.440842,43.9624285 174.916929,42.9080854 C176.393003,41.8303033 177.681647,40.5182274 178.782861,38.9718576 C179.907493,37.4254878 180.797829,35.5159543 181.453867,33.243257 C182.13333,30.9705528 182.473061,28.4752673 182.473061,25.7574006 C182.473061,22.9926766 182.121614,20.4622498 181.418718,18.1661204 C180.715823,15.8699909 179.778627,13.9487413 178.60713,12.4023715 C177.459065,10.8559948 176.111848,9.55563495 174.565478,8.50129191 C173.042527,7.42350982 171.461005,6.65032147 169.820914,6.18172686 C168.204255,5.68970701 166.55245,5.44369709 164.865502,5.44369709 Z" id="path5004-3" fill="#252525"></path>
                    <polygon id="path5006-7" fill="#252525" points="193.346278 0.724919094 200.902421 0.724919094 228.104513 42.5121346 228.104513 0.724919094 234.07914 0.724919094 234.07914 50.6657243 226.523008 50.6657243 199.320906 8.80823301 199.320906 50.6657243 193.346278 50.6657243 193.346278 0.724919094"></polygon>
                    <polygon id="path5002-8-1" fill="url(#linearGradient-1)" points="134.865947 1.44983819 142.351772 1.44983819 121.229732 25.2780427 113.708738 25.770066"></polygon>
                    <polygon id="path5002-9-8" fill="url(#linearGradient-2)" points="120.608373 24.5436893 143.065921 50.65629 135.369196 50.65629 113.087379 25.0357126"></polygon>
                </g>
                <g id="Group-2" transform="translate(84.401294, 0.000000)">
                    <ellipse id="ellipse4650-0-7-2-3-4-4" stroke="#A3A3A3" stroke-width="0.5" fill="url(#linearGradient-3)" fill-rule="nonzero" cx="32.6381773" cy="32.0750084" rx="32.6283216" ry="32.0379153"></ellipse>
                    <path d="M11.4081036,63.3958214 C11.4081036,63.3958214 21.6045877,27.7160181 61.2958239,32.2529036 C61.2958239,32.2529036 36.0705761,17.2784777 11.5820634,37.4661903 C4.3498356,54.2184492 11.4081036,63.3958214 11.4081036,63.3958214 Z" id="path4652-2-7-9-7-2-7" fill="url(#linearGradient-4)"></path>
                    <path d="M14.4437126,58.8828065 C14.4437126,58.8828065 25.0829773,33.2320207 53.4825113,32.781235 C31.8948557,38.0404091 53.5179288,56.6850589 53.5179288,56.6850589 C53.5179288,56.6850589 36.4417036,72.1574524 14.4437126,58.8828065 Z" id="path4654-1-7-7-4-4-6" fill="url(#linearGradient-5)"></path>
                    <path d="M8.52013981,39.2195107 C8.52013981,39.2195107 29.7704078,15.8442252 61.504145,31.9944181 C60.937455,27.6027133 57.183244,22.6443184 50.4539961,21.2276298 C48.9664828,20.5192906 38.0580039,3.66073786 14.6118835,13.3650434 C21.8248181,13.9266589 24.9197359,14.9370097 25.0953528,15.7025553 C12.6216181,13.5588039 8.92412686,31.3103638 8.52013981,39.2195107 Z" id="path4656-5-6-43-8-0-8" fill="url(#linearGradient-6)"></path>
                    <path d="M38.996567,19.3904259 C38.996567,19.3904259 44.4333773,17.4432932 45.1414265,23.2341333 C39.7804841,23.7399094 38.996567,19.3904259 38.996567,19.3904259 Z" id="path4658-6-9-5-0-2-9" fill="#202020"></path>
                    <path d="M11.2656259,63.5118913 C11.2656259,63.5118913 20.5605489,33.1914563 51.6367638,32.0183715 C51.6367638,32.0183715 26.4197385,27.4174239 8.60980194,55.6298977 C8.51105761,59.6212919 11.2656259,63.5118913 11.2656259,63.5118913 Z" id="path4660-5-1-6-0-7-6" fill="url(#linearGradient-7)"></path>
                    <path d="M14.6379599,13.3679845 C14.6379599,13.3679845 22.3889812,13.8187806 25.1563081,15.7220971 C26.3117463,15.4843961 27.2928104,14.6932919 27.4595832,13.6158343 C26.4680906,13.205499 17.3927663,12.4664129 14.6379599,13.3679845 Z" id="path4662-0-1-1-1-2-3" fill="url(#linearGradient-8)"></path>
                    <path d="M8.59003236,39.2598265 C8.59003236,39.2598265 18.2940686,27.6043702 37.8847172,26.2119249 C37.8847172,26.2119249 11.2157618,27.4172065 8.97693204,34.9478214 C8.35450615,36.7586589 8.59003236,39.2598265 8.59003236,39.2598265 Z" id="path4442-5-0-9-4-6-0-96" fill="url(#linearGradient-9)"></path>
                </g>
            </g>
        </g>
    </g>
</svg>
