<?xml version="1.0" encoding="UTF-8"?>
<svg width="32px" height="32px" viewBox="0 0 32 32" version="1.1" xmlns="http://www.w3.org/2000/svg" xmlns:xlink="http://www.w3.org/1999/xlink">
    <!-- Generator: Sketch 48.2 (47327) - http://www.bohemiancoding.com/sketch -->
    <title>Icon-32</title>
    <desc>Created with Sketch.</desc>
    <defs></defs>
    <g id="Page-1" stroke="none" stroke-width="1" fill="none" fill-rule="evenodd">
        <g id="Icon-32">
            <g id="Group-3-Copy" transform="translate(0.100946, 0.353312)">
                <ellipse id="ellipse4650-0-7-2-3-8" stroke="#A3A3A3" stroke-width="0.5" fill="#1E1E1E" fill-rule="nonzero" cx="15.9373375" cy="15.6299659" rx="15.9024469" ry="15.6146938"></ellipse>
                <path d="M5.59018297,30.8951571 C5.59018297,30.8951571 10.5597628,13.5054738 29.9045451,15.7166688 C29.9045451,15.7166688 17.6102208,8.41840757 5.67496782,18.2575293 C2.1501123,26.4222738 5.59018297,30.8951571 5.59018297,30.8951571 Z" id="path4652-2-7-9-7-1" fill="#FFFFFF"></path>
                <path d="M7.06968328,28.6955962 C7.06968328,28.6955962 12.2550662,16.1938726 26.0964795,15.9741678 C15.5750511,18.5373931 26.1137413,27.6244543 26.1137413,27.6244543 C26.1137413,27.6244543 17.7911016,35.1654158 7.06968328,28.6955962 Z" id="path4654-1-7-7-4-6" fill="#FFFFFF"></path>
                <path d="M4.18264227,19.1120656 C4.18264227,19.1120656 14.5396341,7.71937918 30.006077,15.5906877 C29.7298826,13.4502511 27.9001489,11.0336202 24.6204366,10.3431521 C23.8954498,9.9979205 18.5788568,1.78137035 7.15164669,6.51107129 C10.6670991,6.78479243 12.1755054,7.27721893 12.2610978,7.65033186 C6.18162776,6.60550662 4.37953817,15.2572921 4.18264227,19.1120656 Z" id="path4656-5-6-43-8-8" fill="#FFFFFF"></path>
                <path d="M19.0362953,9.44773249 C19.0362953,9.44773249 21.6860972,8.49873565 22.0311874,11.3210852 C19.4183621,11.5675912 19.0362953,9.44773249 19.0362953,9.44773249 Z" id="path4658-6-9-5-0-0" fill="#1E1E1E"></path>
            </g>
        </g>
    </g>
</svg>