<?xml version="1.0" encoding="UTF-8"?>
<svg width="32px" height="32px" viewBox="0 0 32 32" version="1.1" xmlns="http://www.w3.org/2000/svg" xmlns:xlink="http://www.w3.org/1999/xlink">
    <!-- Generator: Sketch 48.2 (47327) - http://www.bohemiancoding.com/sketch -->
    <title>Icon-32</title>
    <desc>Created with Sketch.</desc>
    <defs>
        <ellipse id="path-1" cx="16.0020253" cy="15.6805873" rx="15.9527711" ry="15.6641073"></ellipse>
    </defs>
    <g id="Page-1" stroke="none" stroke-width="1" fill="none" fill-rule="evenodd">
        <g id="Icon-32">
            <g id="Group-Copy" transform="translate(0.000000, 0.303797)">
                <g id="ellipse4650-0-7-2-3-8-3" fill-rule="nonzero">
                    <use fill="#FFFFFF" fill-rule="evenodd" xlink:href="#path-1"></use>
                    <ellipse stroke="#090909" stroke-width="0.506329114" cx="16.0020253" cy="15.6805873" rx="15.6996066" ry="15.4109428"></ellipse>
                </g>
                <path d="M5.62212658,30.9940709 C5.62212658,30.9940709 10.6074329,13.549357 30.0134329,15.7675494 C30.0134329,15.7675494 17.6802025,8.44619241 5.70717975,18.3164506 C2.17116962,26.5070329 5.62212658,30.9940709 5.62212658,30.9940709 Z" id="path4652-2-7-9-7-1-5" fill="#0B0B0B"></path>
                <path d="M7.10630886,28.7875494 C7.10630886,28.7875494 12.3081013,16.2462633 26.1933165,16.0258633 C15.6385924,18.5972 26.2106329,27.7130177 26.2106329,27.7130177 C26.2106329,27.7130177 17.8616557,35.277843 7.10630886,28.7875494 Z" id="path4654-1-7-7-4-6-3" fill="#0B0B0B"></path>
                <path d="M4.21013165,19.1736911 C4.21013165,19.1736911 14.5998987,7.7449519 30.1152861,15.6411696 C29.8382177,13.4939595 28.0026937,11.069681 24.7126025,10.3770278 C23.9853215,10.0307038 18.6519038,1.7881519 7.18853165,6.53282025 C10.7151089,6.80740759 12.2282886,7.30139241 12.3141519,7.67568608 C6.21544304,6.62755443 4.40765063,15.306719 4.21013165,19.1736911 Z" id="path4656-5-6-43-8-8-7" fill="#0B0B0B"></path>
                <path d="M19.1107899,9.47877468 C19.1107899,9.47877468 21.7689772,8.52677468 22.1151595,11.3580557 C19.4940658,11.6053418 19.1107899,9.47877468 19.1107899,9.47877468 Z" id="path4658-6-9-5-0-0-3" fill="#FFFFFF"></path>
            </g>
        </g>
    </g>
</svg>