<?xml version="1.0" encoding="UTF-8"?>
<svg width="32px" height="32px" viewBox="0 0 32 32" version="1.1" xmlns="http://www.w3.org/2000/svg" xmlns:xlink="http://www.w3.org/1999/xlink">
    <!-- Generator: Sketch 48.2 (47327) - http://www.bohemiancoding.com/sketch -->
    <title>Icon-32</title>
    <desc>Created with Sketch.</desc>
    <defs>
        <linearGradient x1="148.794275%" y1="-26.5643443%" x2="-21.1415871%" y2="99.3029307%" id="linearGradient-1">
            <stop stop-color="#D446FF" offset="0%"></stop>
            <stop stop-color="#A0D8FF" offset="100%"></stop>
        </linearGradient>
        <linearGradient x1="41.8083357%" y1="20.866645%" x2="95.5956597%" y2="-8.31097281%" id="linearGradient-2">
            <stop stop-color="#FFFFFF" offset="0%"></stop>
            <stop stop-color="#DADADA" offset="100%"></stop>
        </linearGradient>
        <linearGradient x1="52.2801818%" y1="70.5577815%" x2="2.53678786%" y2="8.97706744%" id="linearGradient-3">
            <stop stop-color="#FFFFFF" offset="0%"></stop>
            <stop stop-color="#DADADA" offset="100%"></stop>
        </linearGradient>
        <linearGradient x1="98.684398%" y1="12.9995489%" x2="35.2678133%" y2="40.863838%" id="linearGradient-4">
            <stop stop-color="#D0D0D0" offset="0%"></stop>
            <stop stop-color="#FFFFFF" offset="100%"></stop>
        </linearGradient>
        <linearGradient x1="34.2841787%" y1="31.6476155%" x2="-40.2132134%" y2="123.398162%" id="linearGradient-5">
            <stop stop-color="#FFDC68" offset="0%"></stop>
            <stop stop-color="#CE4300" offset="100%"></stop>
        </linearGradient>
        <linearGradient x1="95.7086811%" y1="2.33776624%" x2="-10.5474304%" y2="34.7418529%" id="linearGradient-6">
            <stop stop-color="#FFDC68" offset="0%"></stop>
            <stop stop-color="#CE4300" offset="100%"></stop>
        </linearGradient>
        <linearGradient x1="55.2222258%" y1="39.6484627%" x2="-63.5655829%" y2="222.055577%" id="linearGradient-7">
            <stop stop-color="#FFDC68" offset="0%"></stop>
            <stop stop-color="#CE4300" offset="100%"></stop>
        </linearGradient>
    </defs>
    <g id="Page-1" stroke="none" stroke-width="1" fill="none" fill-rule="evenodd">
        <g id="Icon-32">
            <g id="Group-2-Copy" transform="translate(0.151420, 0.353312)">
                <ellipse id="ellipse4650-0-7-2-3-4-4" stroke="#A3A3A3" stroke-width="0.5" fill="url(#linearGradient-1)" fill-rule="nonzero" cx="15.9072505" cy="15.6327722" rx="15.9024469" ry="15.6146938"></ellipse>
                <path d="M5.56010095,30.8979634 C5.56010095,30.8979634 10.5296808,13.5082801 29.8744631,15.7194751 C29.8744631,15.7194751 17.5801388,8.42121388 5.6448858,18.2603356 C2.12003028,26.4250801 5.56010095,30.8979634 5.56010095,30.8979634 Z" id="path4652-2-7-9-7-2-7" fill="url(#linearGradient-2)"></path>
                <path d="M7.03960126,28.6984025 C7.03960126,28.6984025 12.2249842,16.1966789 26.0663975,15.9769741 C15.5449691,18.5401994 26.0836593,27.6272606 26.0836593,27.6272606 C26.0836593,27.6272606 17.7610196,35.1682221 7.03960126,28.6984025 Z" id="path4654-1-7-7-4-4-6" fill="url(#linearGradient-3)"></path>
                <path d="M4.15256025,19.1148719 C4.15256025,19.1148719 14.5095521,7.72218549 29.975995,15.593494 C29.6998006,13.4530574 27.8700669,11.0364265 24.5903546,10.3459584 C23.8653678,10.0007268 18.5487748,1.78417666 7.12156467,6.5138776 C10.637017,6.78759874 12.1454233,7.28002524 12.2310158,7.65313817 C6.15154574,6.60831293 4.34945615,15.2600984 4.15256025,19.1148719 Z" id="path4656-5-6-43-8-0-8" fill="url(#linearGradient-4)"></path>
                <path d="M19.0062132,9.4505388 C19.0062132,9.4505388 21.6560151,8.50154196 22.0011054,11.3238915 C19.3882801,11.5703975 19.0062132,9.4505388 19.0062132,9.4505388 Z" id="path4658-6-9-5-0-2-9" fill="#202020"></path>
                <path d="M5.49065994,30.9545338 C5.49065994,30.9545338 10.0208353,16.1769085 25.1668139,15.6051685 C25.1668139,15.6051685 12.8764972,13.3627508 4.19625994,27.1129943 C4.14813375,29.0583268 5.49065994,30.9545338 5.49065994,30.9545338 Z" id="path4660-5-1-6-0-7-6" fill="url(#linearGradient-5)"></path>
                <path d="M7.13427382,6.51531104 C7.13427382,6.51531104 10.9119798,6.73502082 12.2607243,7.66266246 C12.8238637,7.54681136 13.3020164,7.16124164 13.3832984,6.63610852 C12.9000631,6.43611861 8.47691609,6.07590158 7.13427382,6.51531104 Z" id="path4662-0-1-1-1-2-3" fill="url(#linearGradient-6)"></path>
                <path d="M4.18662461,19.1345211 C4.18662461,19.1345211 8.91619432,13.453865 18.464318,12.7752126 C18.464318,12.7752126 5.4663571,13.3626448 4.37519243,17.0329287 C4.07183344,17.9154978 4.18662461,19.1345211 4.18662461,19.1345211 Z" id="path4442-5-0-9-4-6-0-96" fill="url(#linearGradient-7)"></path>
            </g>
        </g>
    </g>
</svg>